<svg width="100" height="112" viewBox="0 0 100 112" fill="none" xmlns="http://www.w3.org/2000/svg">
<g filter="url(#filter0_f_1_40)">
<path d="M89.2898 78.4079V33.4844L50.1659 11.0347L11.042 33.4844V78.4079L50.1659 100.858L89.2898 78.4079Z" stroke="white" stroke-width="2.5" stroke-linecap="round" stroke-linejoin="round"/>
<path d="M89.2897 33.7217L50.1658 100.857L11.0419 33.7217H89.2897Z" stroke="white" stroke-width="2.5" stroke-linecap="round" stroke-linejoin="round"/>
<path d="M30.4882 67.5211L50.1659 33.7217L69.8436 67.5211H30.4882Z" stroke="white" stroke-width="2.5" stroke-linecap="round" stroke-linejoin="round"/>
<path d="M89.2898 78.6335L69.8436 67.5214" stroke="white" stroke-width="2.5" stroke-linecap="round" stroke-linejoin="round"/>
<path d="M11.0419 78.6335L30.4881 67.5214" stroke="white" stroke-width="2.5" stroke-linecap="round" stroke-linejoin="round"/>
<path d="M50.3972 11.0345V33.7218" stroke="white" stroke-width="2.5" stroke-linecap="round" stroke-linejoin="round"/>
</g>
<path d="M89.2898 78.4079V33.4844L50.1659 11.0347L11.042 33.4844V78.4079L50.1659 100.858L89.2898 78.4079Z" stroke="white" stroke-width="1.0" stroke-linecap="round" stroke-linejoin="round"/>
<path d="M89.2897 33.7217L50.1658 100.857L11.0419 33.7217H89.2897Z" stroke="white" stroke-width="1.0" stroke-linecap="round" stroke-linejoin="round"/>
<path d="M30.4882 67.5211L50.1659 33.7217L69.8436 67.5211H30.4882Z" stroke="white" stroke-width="1.0" stroke-linecap="round" stroke-linejoin="round"/>
<path d="M89.2898 78.6335L69.8436 67.5214" stroke="white" stroke-width="1.0" stroke-linecap="round" stroke-linejoin="round"/>
<path d="M11.0419 78.6335L30.4881 67.5214" stroke="white" stroke-width="1.0" stroke-linecap="round" stroke-linejoin="round"/>
<path d="M50.3972 11.0345V33.7218" stroke="white" stroke-width="1.0" stroke-linecap="round" stroke-linejoin="round"/>
<defs>
<filter id="filter0_f_1_40" x="0.624057" y="0.616916" width="99.0836" height="110.658" filterUnits="userSpaceOnUse" color-interpolation-filters="sRGB">
<feFlood flood-opacity="0" result="BackgroundImageFix"/>
<feBlend mode="normal" in="SourceGraphic" in2="BackgroundImageFix" result="shape"/>
<feGaussianBlur stdDeviation="4.63005" result="effect1_foregroundBlur_1_40"/>
</filter>
</defs>
</svg>